<?xml version="1.0" standalone="no"?>
<!DOCTYPE svg PUBLIC "-//W3C//DTD SVG 20010904//EN"
 "http://www.w3.org/TR/2001/REC-SVG-20010904/DTD/svg10.dtd">
<svg version="1.0" xmlns="http://www.w3.org/2000/svg"
 width="700.000000pt" height="700.000000pt" viewBox="0 0 700.000000 700.000000"
 preserveAspectRatio="xMidYMid meet">
<metadata>
Created by potrace 1.14, written by Peter Selinger 2001-2017
</metadata>
<g transform="translate(0.000000,700.000000) scale(0.100000,-0.100000)"
fill="#000000" stroke="none">
<path d="M1445 6981 c-47 -22 -99 -74 -116 -116 -10 -26 -17 -118 -19 -266 l0
-36 -232 0 c-287 0 -359 -7 -483 -47 -118 -38 -272 -138 -364 -236 -49 -52
-113 -151 -150 -232 -68 -147 -73 -178 -78 -505 l-5 -293 3501 0 3502 0 -2
268 c-2 324 -15 406 -89 552 -117 232 -314 396 -553 460 -106 28 -163 32 -423
33 -129 0 -237 4 -240 8 -3 5 -5 59 -6 121 -1 134 -16 192 -60 236 -49 51 -85
66 -158 67 -85 0 -147 -34 -187 -103 -26 -44 -28 -55 -31 -188 l-4 -141 -1749
0 -1749 0 0 129 c0 70 1 129 1 131 4 6 -42 85 -64 109 -57 62 -166 84 -242 49z"/>
<path d="M37 4812 l-37 -3 0 -2022 1 -2022 24 -93 c85 -325 306 -550 632 -644
l78 -23 2765 0 2765 0 79 23 c239 69 410 201 543 417 32 53 69 148 100 264 4
14 9 943 10 2064 l3 2037 -32 1 c-155 2 -6902 3 -6931 1z m4669 -907 c35 -22
57 -46 77 -83 l29 -53 0 -258 c0 -288 -6 -324 -59 -378 -68 -67 -70 -67 -362
-69 -146 -1 -278 2 -294 7 -73 21 -139 92 -153 164 -13 70 -8 507 6 550 24 72
78 125 148 144 15 4 147 7 293 7 l266 -1 49 -30z m1304 4 c108 -64 116 -93
115 -426 l-1 -261 -30 -48 c-33 -54 -79 -89 -133 -103 -20 -5 -153 -9 -296 -7
l-260 1 -46 29 c-55 35 -96 93 -104 150 -4 22 -5 154 -3 291 3 275 4 280 69
343 56 55 86 59 379 58 l265 -1 45 -26z m-4385 -1306 c51 -27 90 -68 109 -115
13 -31 16 -85 16 -300 0 -243 -2 -266 -21 -308 -23 -52 -57 -85 -114 -111 -36
-17 -68 -19 -295 -19 -142 0 -271 5 -291 10 -54 15 -116 76 -138 135 -15 44
-17 82 -16 305 2 285 5 303 70 365 61 57 87 61 378 60 245 -1 265 -3 302 -22z
m1307 3 c63 -31 112 -91 125 -155 3 -14 5 -139 6 -277 0 -240 -1 -254 -22
-298 -27 -55 -77 -99 -131 -115 -26 -8 -126 -11 -297 -11 -234 1 -262 3 -297
21 -53 26 -82 54 -107 105 -19 40 -20 60 -21 313 0 279 3 298 45 351 22 29 82
68 115 77 19 5 149 8 290 8 225 -1 262 -3 294 -19z"/>
</g>
</svg>
